<mxfile host="app.diagrams.net" modified="2021-10-23T10:01:20.106Z" agent="5.0 (Macintosh; Intel Mac OS X 10_15_7) AppleWebKit/537.36 (KHTML, like Gecko) Chrome/94.0.4606.71 Safari/537.36" etag="bePs6HDpxQ272d4ggZoc" version="15.5.8" type="github">
  <diagram name="Page-1" id="8ce9d11a-91a2-4d17-14d8-a56ed91bf033">
    <mxGraphModel dx="3265" dy="1620" grid="1" gridSize="10" guides="1" tooltips="1" connect="1" arrows="1" fold="1" page="1" pageScale="1" pageWidth="900" pageHeight="1600" background="none" math="0" shadow="0">
      <root>
        <mxCell id="0" />
        <mxCell id="1" parent="0" />
        <mxCell id="XL9_cZ4qsGIXgxrW0bPy-180" style="edgeStyle=orthogonalEdgeStyle;rounded=0;orthogonalLoop=1;jettySize=auto;html=1;entryX=0;entryY=0.25;entryDx=0;entryDy=0;endArrow=classic;endFill=1;" edge="1" parent="1" target="XL9_cZ4qsGIXgxrW0bPy-146">
          <mxGeometry relative="1" as="geometry">
            <mxPoint x="145" y="120.00000000000011" as="sourcePoint" />
          </mxGeometry>
        </mxCell>
        <mxCell id="XL9_cZ4qsGIXgxrW0bPy-179" style="edgeStyle=orthogonalEdgeStyle;rounded=0;orthogonalLoop=1;jettySize=auto;html=1;entryX=0;entryY=0.75;entryDx=0;entryDy=0;endArrow=classic;endFill=1;" edge="1" parent="1" source="XL9_cZ4qsGIXgxrW0bPy-8" target="XL9_cZ4qsGIXgxrW0bPy-146">
          <mxGeometry relative="1" as="geometry" />
        </mxCell>
        <mxCell id="XL9_cZ4qsGIXgxrW0bPy-8" value="" style="strokeWidth=2;html=1;shape=mxgraph.flowchart.database;whiteSpace=wrap;shadow=1;fillColor=#1ba1e2;fontColor=#ffffff;strokeColor=#006EAF;" vertex="1" parent="1">
          <mxGeometry x="35" y="185" width="115" height="85" as="geometry" />
        </mxCell>
        <mxCell id="XL9_cZ4qsGIXgxrW0bPy-9" value="База клиентов FL" style="text;html=1;resizable=0;autosize=1;align=center;verticalAlign=middle;points=[];fillColor=#1ba1e2;strokeColor=#006EAF;rounded=0;shadow=1;fontColor=#ffffff;" vertex="1" parent="1">
          <mxGeometry x="30" y="225" width="120" height="20" as="geometry" />
        </mxCell>
        <mxCell id="XL9_cZ4qsGIXgxrW0bPy-175" style="edgeStyle=orthogonalEdgeStyle;rounded=0;orthogonalLoop=1;jettySize=auto;html=1;exitX=0.5;exitY=1;exitDx=0;exitDy=0;entryX=0;entryY=0.5;entryDx=0;entryDy=0;endArrow=classic;endFill=1;" edge="1" parent="1" source="XL9_cZ4qsGIXgxrW0bPy-18" target="XL9_cZ4qsGIXgxrW0bPy-144">
          <mxGeometry relative="1" as="geometry">
            <Array as="points">
              <mxPoint x="5" y="745" />
              <mxPoint x="-90" y="745" />
              <mxPoint x="-90" y="460" />
            </Array>
          </mxGeometry>
        </mxCell>
        <mxCell id="XL9_cZ4qsGIXgxrW0bPy-18" value="" style="verticalLabelPosition=bottom;verticalAlign=top;html=1;shape=hexagon;perimeter=hexagonPerimeter2;arcSize=6;size=0.27;shadow=1;fillColor=#e1d5e7;strokeColor=#9673a6;" vertex="1" parent="1">
          <mxGeometry x="-50" y="655" width="110" height="70" as="geometry" />
        </mxCell>
        <mxCell id="XL9_cZ4qsGIXgxrW0bPy-20" value="Необходимо&lt;br&gt;больше&lt;br&gt;информации" style="text;html=1;resizable=0;autosize=1;align=center;verticalAlign=middle;points=[];fillColor=none;strokeColor=none;rounded=0;shadow=1;" vertex="1" parent="1">
          <mxGeometry x="-40" y="665" width="90" height="50" as="geometry" />
        </mxCell>
        <mxCell id="XL9_cZ4qsGIXgxrW0bPy-118" style="edgeStyle=orthogonalEdgeStyle;rounded=0;orthogonalLoop=1;jettySize=auto;html=1;exitX=1;exitY=0.5;exitDx=0;exitDy=0;entryX=0;entryY=0.5;entryDx=0;entryDy=0;entryPerimeter=0;endArrow=none;endFill=0;" edge="1" parent="1" source="XL9_cZ4qsGIXgxrW0bPy-21" target="XL9_cZ4qsGIXgxrW0bPy-116">
          <mxGeometry relative="1" as="geometry" />
        </mxCell>
        <mxCell id="XL9_cZ4qsGIXgxrW0bPy-119" value="выполняет" style="edgeLabel;html=1;align=center;verticalAlign=middle;resizable=0;points=[];" vertex="1" connectable="0" parent="XL9_cZ4qsGIXgxrW0bPy-118">
          <mxGeometry x="-0.275" y="-1" relative="1" as="geometry">
            <mxPoint x="11" y="-1" as="offset" />
          </mxGeometry>
        </mxCell>
        <mxCell id="XL9_cZ4qsGIXgxrW0bPy-170" style="edgeStyle=orthogonalEdgeStyle;rounded=0;orthogonalLoop=1;jettySize=auto;html=1;exitX=0.5;exitY=1;exitDx=0;exitDy=0;entryX=0.5;entryY=0;entryDx=0;entryDy=0;endArrow=classic;endFill=1;" edge="1" parent="1" source="XL9_cZ4qsGIXgxrW0bPy-21" target="XL9_cZ4qsGIXgxrW0bPy-169">
          <mxGeometry relative="1" as="geometry" />
        </mxCell>
        <mxCell id="XL9_cZ4qsGIXgxrW0bPy-21" value="Определение&lt;br&gt;возможностей и ресурсов для выполнения" style="rounded=1;whiteSpace=wrap;html=1;shadow=0;labelBackgroundColor=none;strokeWidth=1;fontFamily=Verdana;fontSize=12;align=center;fillColor=#d5e8d4;strokeColor=#82b366;" vertex="1" parent="1">
          <mxGeometry x="295" y="505" width="120" height="80" as="geometry" />
        </mxCell>
        <mxCell id="XL9_cZ4qsGIXgxrW0bPy-182" style="edgeStyle=orthogonalEdgeStyle;rounded=0;orthogonalLoop=1;jettySize=auto;html=1;exitX=0;exitY=0.5;exitDx=0;exitDy=0;entryX=1.008;entryY=0.253;entryDx=0;entryDy=0;entryPerimeter=0;endArrow=classic;endFill=1;" edge="1" parent="1" source="XL9_cZ4qsGIXgxrW0bPy-32" target="XL9_cZ4qsGIXgxrW0bPy-176">
          <mxGeometry relative="1" as="geometry" />
        </mxCell>
        <mxCell id="XL9_cZ4qsGIXgxrW0bPy-32" value="" style="verticalLabelPosition=bottom;verticalAlign=top;html=1;shape=hexagon;perimeter=hexagonPerimeter2;arcSize=6;size=0.27;shadow=1;fillColor=#e1d5e7;strokeColor=#9673a6;" vertex="1" parent="1">
          <mxGeometry x="680" y="655" width="110" height="70" as="geometry" />
        </mxCell>
        <mxCell id="XL9_cZ4qsGIXgxrW0bPy-34" value="Ресурсы&lt;br&gt;и возможности&lt;br&gt;установлены" style="text;html=1;resizable=0;autosize=1;align=center;verticalAlign=middle;points=[];fillColor=none;strokeColor=none;rounded=0;shadow=1;" vertex="1" parent="1">
          <mxGeometry x="690" y="660" width="100" height="50" as="geometry" />
        </mxCell>
        <mxCell id="XL9_cZ4qsGIXgxrW0bPy-46" value="выполняет" style="edgeStyle=orthogonalEdgeStyle;rounded=0;orthogonalLoop=1;jettySize=auto;html=1;endArrow=none;endFill=0;" edge="1" parent="1" source="XL9_cZ4qsGIXgxrW0bPy-38" target="XL9_cZ4qsGIXgxrW0bPy-44">
          <mxGeometry relative="1" as="geometry" />
        </mxCell>
        <mxCell id="XL9_cZ4qsGIXgxrW0bPy-159" style="edgeStyle=orthogonalEdgeStyle;rounded=0;orthogonalLoop=1;jettySize=auto;html=1;exitX=0.5;exitY=1;exitDx=0;exitDy=0;entryX=0.502;entryY=0;entryDx=0;entryDy=0;entryPerimeter=0;endArrow=classic;endFill=1;" edge="1" parent="1" source="XL9_cZ4qsGIXgxrW0bPy-38" target="XL9_cZ4qsGIXgxrW0bPy-42">
          <mxGeometry relative="1" as="geometry" />
        </mxCell>
        <mxCell id="XL9_cZ4qsGIXgxrW0bPy-38" value="Обсуждение ТЗ с&lt;br&gt;клиентом" style="rounded=1;whiteSpace=wrap;html=1;shadow=0;labelBackgroundColor=none;strokeWidth=1;fontFamily=Verdana;fontSize=12;align=center;fillColor=#d5e8d4;strokeColor=#82b366;" vertex="1" parent="1">
          <mxGeometry x="297.5" y="762.5" width="120" height="80" as="geometry" />
        </mxCell>
        <mxCell id="XL9_cZ4qsGIXgxrW0bPy-48" style="edgeStyle=orthogonalEdgeStyle;rounded=0;orthogonalLoop=1;jettySize=auto;html=1;exitX=0.5;exitY=1;exitDx=0;exitDy=0;entryX=0.5;entryY=0;entryDx=0;entryDy=0;endArrow=classic;endFill=1;" edge="1" parent="1" target="XL9_cZ4qsGIXgxrW0bPy-47">
          <mxGeometry relative="1" as="geometry">
            <mxPoint x="355" y="1005" as="sourcePoint" />
          </mxGeometry>
        </mxCell>
        <mxCell id="XL9_cZ4qsGIXgxrW0bPy-185" style="edgeStyle=orthogonalEdgeStyle;rounded=0;orthogonalLoop=1;jettySize=auto;html=1;exitX=1;exitY=0.5;exitDx=0;exitDy=0;entryX=0.5;entryY=0;entryDx=0;entryDy=0;entryPerimeter=0;endArrow=classic;endFill=1;" edge="1" parent="1" source="XL9_cZ4qsGIXgxrW0bPy-41" target="XL9_cZ4qsGIXgxrW0bPy-85">
          <mxGeometry relative="1" as="geometry" />
        </mxCell>
        <mxCell id="XL9_cZ4qsGIXgxrW0bPy-186" style="edgeStyle=orthogonalEdgeStyle;rounded=0;orthogonalLoop=1;jettySize=auto;html=1;exitX=0.5;exitY=1;exitDx=0;exitDy=0;entryX=0.5;entryY=0;entryDx=0;entryDy=0;endArrow=classic;endFill=1;" edge="1" parent="1" source="XL9_cZ4qsGIXgxrW0bPy-41" target="XL9_cZ4qsGIXgxrW0bPy-181">
          <mxGeometry relative="1" as="geometry" />
        </mxCell>
        <mxCell id="XL9_cZ4qsGIXgxrW0bPy-41" value="" style="verticalLabelPosition=bottom;verticalAlign=top;html=1;shape=hexagon;perimeter=hexagonPerimeter2;arcSize=6;size=0.27;shadow=1;fillColor=#e1d5e7;strokeColor=#9673a6;" vertex="1" parent="1">
          <mxGeometry x="300" y="877.5" width="115" height="60" as="geometry" />
        </mxCell>
        <mxCell id="XL9_cZ4qsGIXgxrW0bPy-42" value="Требования&lt;br&gt;клиента&amp;nbsp;&lt;br&gt;установлены" style="text;html=1;resizable=0;autosize=1;align=center;verticalAlign=middle;points=[];fillColor=none;strokeColor=none;rounded=0;shadow=1;" vertex="1" parent="1">
          <mxGeometry x="312.5" y="877.5" width="90" height="50" as="geometry" />
        </mxCell>
        <mxCell id="XL9_cZ4qsGIXgxrW0bPy-44" value="" style="strokeWidth=2;html=1;shape=mxgraph.flowchart.start_1;whiteSpace=wrap;fillColor=#fff2cc;strokeColor=#d6b656;" vertex="1" parent="1">
          <mxGeometry x="495" y="772.5" width="100" height="60" as="geometry" />
        </mxCell>
        <mxCell id="XL9_cZ4qsGIXgxrW0bPy-45" value="PM" style="text;html=1;resizable=0;autosize=1;align=center;verticalAlign=middle;points=[];fillColor=none;strokeColor=none;rounded=0;shadow=1;" vertex="1" parent="1">
          <mxGeometry x="530" y="792.5" width="30" height="20" as="geometry" />
        </mxCell>
        <mxCell id="XL9_cZ4qsGIXgxrW0bPy-52" style="edgeStyle=orthogonalEdgeStyle;rounded=0;orthogonalLoop=1;jettySize=auto;html=1;exitX=1;exitY=0.5;exitDx=0;exitDy=0;entryX=0;entryY=0.5;entryDx=0;entryDy=0;entryPerimeter=0;endArrow=none;endFill=0;" edge="1" parent="1" source="XL9_cZ4qsGIXgxrW0bPy-47" target="XL9_cZ4qsGIXgxrW0bPy-50">
          <mxGeometry relative="1" as="geometry" />
        </mxCell>
        <mxCell id="XL9_cZ4qsGIXgxrW0bPy-53" value="выполняет" style="edgeLabel;html=1;align=center;verticalAlign=middle;resizable=0;points=[];" vertex="1" connectable="0" parent="XL9_cZ4qsGIXgxrW0bPy-52">
          <mxGeometry x="-0.0654" relative="1" as="geometry">
            <mxPoint as="offset" />
          </mxGeometry>
        </mxCell>
        <mxCell id="XL9_cZ4qsGIXgxrW0bPy-54" value="выполняет" style="edgeStyle=orthogonalEdgeStyle;rounded=0;orthogonalLoop=1;jettySize=auto;html=1;exitX=0;exitY=0.5;exitDx=0;exitDy=0;entryX=1;entryY=0.5;entryDx=0;entryDy=0;entryPerimeter=0;endArrow=none;endFill=0;" edge="1" parent="1" source="XL9_cZ4qsGIXgxrW0bPy-47" target="XL9_cZ4qsGIXgxrW0bPy-51">
          <mxGeometry relative="1" as="geometry" />
        </mxCell>
        <mxCell id="XL9_cZ4qsGIXgxrW0bPy-58" style="edgeStyle=orthogonalEdgeStyle;rounded=0;orthogonalLoop=1;jettySize=auto;html=1;exitX=0.5;exitY=1;exitDx=0;exitDy=0;entryX=0.5;entryY=0;entryDx=0;entryDy=0;endArrow=classic;endFill=1;" edge="1" parent="1" source="XL9_cZ4qsGIXgxrW0bPy-47" target="XL9_cZ4qsGIXgxrW0bPy-56">
          <mxGeometry relative="1" as="geometry" />
        </mxCell>
        <mxCell id="XL9_cZ4qsGIXgxrW0bPy-47" value="Написание WBS" style="rounded=1;whiteSpace=wrap;html=1;shadow=0;labelBackgroundColor=none;strokeWidth=1;fontFamily=Verdana;fontSize=12;align=center;fillColor=#d5e8d4;strokeColor=#82b366;" vertex="1" parent="1">
          <mxGeometry x="295" y="1055" width="120" height="80" as="geometry" />
        </mxCell>
        <mxCell id="XL9_cZ4qsGIXgxrW0bPy-50" value="PM" style="strokeWidth=2;html=1;shape=mxgraph.flowchart.start_1;whiteSpace=wrap;fillColor=#fff2cc;strokeColor=#d6b656;" vertex="1" parent="1">
          <mxGeometry x="502.5" y="1065" width="100" height="60" as="geometry" />
        </mxCell>
        <mxCell id="XL9_cZ4qsGIXgxrW0bPy-51" value="Team Lead" style="strokeWidth=2;html=1;shape=mxgraph.flowchart.start_1;whiteSpace=wrap;fillColor=#fff2cc;strokeColor=#d6b656;" vertex="1" parent="1">
          <mxGeometry x="107.5" y="1065" width="100" height="60" as="geometry" />
        </mxCell>
        <mxCell id="XL9_cZ4qsGIXgxrW0bPy-61" style="edgeStyle=orthogonalEdgeStyle;rounded=0;orthogonalLoop=1;jettySize=auto;html=1;exitX=0.5;exitY=1;exitDx=0;exitDy=0;entryX=0.459;entryY=-0.016;entryDx=0;entryDy=0;entryPerimeter=0;endArrow=classic;endFill=1;" edge="1" parent="1" target="XL9_cZ4qsGIXgxrW0bPy-60">
          <mxGeometry relative="1" as="geometry">
            <mxPoint x="352.5" y="1235" as="sourcePoint" />
          </mxGeometry>
        </mxCell>
        <mxCell id="XL9_cZ4qsGIXgxrW0bPy-56" value="" style="verticalLabelPosition=bottom;verticalAlign=top;html=1;shape=hexagon;perimeter=hexagonPerimeter2;arcSize=6;size=0.27;shadow=1;fillColor=#e1d5e7;strokeColor=#9673a6;" vertex="1" parent="1">
          <mxGeometry x="297.5" y="1175" width="115" height="60" as="geometry" />
        </mxCell>
        <mxCell id="XL9_cZ4qsGIXgxrW0bPy-59" value="WBS написана" style="text;html=1;resizable=0;autosize=1;align=center;verticalAlign=middle;points=[];fillColor=none;strokeColor=none;rounded=0;shadow=1;" vertex="1" parent="1">
          <mxGeometry x="302.5" y="1195" width="100" height="20" as="geometry" />
        </mxCell>
        <mxCell id="XL9_cZ4qsGIXgxrW0bPy-63" style="edgeStyle=orthogonalEdgeStyle;rounded=0;orthogonalLoop=1;jettySize=auto;html=1;exitX=0.5;exitY=1;exitDx=0;exitDy=0;entryX=0.5;entryY=0;entryDx=0;entryDy=0;endArrow=classic;endFill=1;" edge="1" parent="1" source="XL9_cZ4qsGIXgxrW0bPy-60" target="XL9_cZ4qsGIXgxrW0bPy-62">
          <mxGeometry relative="1" as="geometry" />
        </mxCell>
        <mxCell id="XL9_cZ4qsGIXgxrW0bPy-69" value="выполняет" style="edgeStyle=orthogonalEdgeStyle;rounded=0;orthogonalLoop=1;jettySize=auto;html=1;exitX=1;exitY=0.5;exitDx=0;exitDy=0;entryX=0;entryY=0.5;entryDx=0;entryDy=0;entryPerimeter=0;endArrow=none;endFill=0;" edge="1" parent="1" source="XL9_cZ4qsGIXgxrW0bPy-60" target="XL9_cZ4qsGIXgxrW0bPy-68">
          <mxGeometry relative="1" as="geometry" />
        </mxCell>
        <mxCell id="XL9_cZ4qsGIXgxrW0bPy-60" value="Утверждение WBS" style="rounded=1;whiteSpace=wrap;html=1;shadow=0;labelBackgroundColor=none;strokeWidth=1;fontFamily=Verdana;fontSize=12;align=center;fillColor=#d5e8d4;strokeColor=#82b366;" vertex="1" parent="1">
          <mxGeometry x="295" y="1275" width="120" height="80" as="geometry" />
        </mxCell>
        <mxCell id="XL9_cZ4qsGIXgxrW0bPy-70" style="edgeStyle=orthogonalEdgeStyle;rounded=0;orthogonalLoop=1;jettySize=auto;html=1;exitX=0;exitY=0.5;exitDx=0;exitDy=0;entryX=0.5;entryY=0;entryDx=0;entryDy=0;endArrow=classic;endFill=1;" edge="1" parent="1" source="XL9_cZ4qsGIXgxrW0bPy-62" target="XL9_cZ4qsGIXgxrW0bPy-64">
          <mxGeometry relative="1" as="geometry" />
        </mxCell>
        <mxCell id="XL9_cZ4qsGIXgxrW0bPy-74" style="edgeStyle=orthogonalEdgeStyle;rounded=0;orthogonalLoop=1;jettySize=auto;html=1;exitX=1;exitY=0.5;exitDx=0;exitDy=0;entryX=0.5;entryY=0;entryDx=0;entryDy=0;endArrow=classic;endFill=1;" edge="1" parent="1" source="XL9_cZ4qsGIXgxrW0bPy-62" target="XL9_cZ4qsGIXgxrW0bPy-66">
          <mxGeometry relative="1" as="geometry" />
        </mxCell>
        <mxCell id="XL9_cZ4qsGIXgxrW0bPy-62" value="&amp;nbsp;XOR" style="ellipse;whiteSpace=wrap;html=1;rounded=1;shadow=0;labelBackgroundColor=none;strokeWidth=1;fontFamily=Verdana;fontSize=12;align=center;fillColor=#f5f5f5;fontColor=#333333;strokeColor=#666666;" vertex="1" parent="1">
          <mxGeometry x="335" y="1400" width="40" height="40" as="geometry" />
        </mxCell>
        <mxCell id="XL9_cZ4qsGIXgxrW0bPy-64" value="" style="verticalLabelPosition=bottom;verticalAlign=top;html=1;shape=hexagon;perimeter=hexagonPerimeter2;arcSize=6;size=0.27;shadow=1;fillColor=#e1d5e7;strokeColor=#9673a6;" vertex="1" parent="1">
          <mxGeometry x="205" y="1470" width="115" height="60" as="geometry" />
        </mxCell>
        <mxCell id="XL9_cZ4qsGIXgxrW0bPy-187" style="edgeStyle=orthogonalEdgeStyle;rounded=0;orthogonalLoop=1;jettySize=auto;html=1;entryX=0.281;entryY=0.922;entryDx=0;entryDy=0;entryPerimeter=0;endArrow=classic;endFill=1;" edge="1" parent="1" source="XL9_cZ4qsGIXgxrW0bPy-65" target="XL9_cZ4qsGIXgxrW0bPy-82">
          <mxGeometry relative="1" as="geometry" />
        </mxCell>
        <mxCell id="XL9_cZ4qsGIXgxrW0bPy-65" value="WBS &lt;br&gt;не утверджена" style="text;html=1;resizable=0;autosize=1;align=center;verticalAlign=middle;points=[];fillColor=none;strokeColor=none;rounded=0;shadow=1;" vertex="1" parent="1">
          <mxGeometry x="210" y="1480" width="100" height="30" as="geometry" />
        </mxCell>
        <mxCell id="XL9_cZ4qsGIXgxrW0bPy-66" value="" style="verticalLabelPosition=bottom;verticalAlign=top;html=1;shape=hexagon;perimeter=hexagonPerimeter2;arcSize=6;size=0.27;shadow=1;fillColor=#e1d5e7;strokeColor=#9673a6;" vertex="1" parent="1">
          <mxGeometry x="412.5" y="1470" width="115" height="60" as="geometry" />
        </mxCell>
        <mxCell id="XL9_cZ4qsGIXgxrW0bPy-67" value="WBS &lt;br&gt;утверждена" style="text;html=1;resizable=0;autosize=1;align=center;verticalAlign=middle;points=[];fillColor=none;strokeColor=none;rounded=0;shadow=1;" vertex="1" parent="1">
          <mxGeometry x="430" y="1485" width="80" height="30" as="geometry" />
        </mxCell>
        <mxCell id="XL9_cZ4qsGIXgxrW0bPy-68" value="Клиент" style="strokeWidth=2;html=1;shape=mxgraph.flowchart.start_1;whiteSpace=wrap;fillColor=#fff2cc;strokeColor=#d6b656;" vertex="1" parent="1">
          <mxGeometry x="510" y="1285" width="100" height="60" as="geometry" />
        </mxCell>
        <mxCell id="XL9_cZ4qsGIXgxrW0bPy-190" style="edgeStyle=orthogonalEdgeStyle;rounded=0;orthogonalLoop=1;jettySize=auto;html=1;exitX=0.5;exitY=0;exitDx=0;exitDy=0;exitPerimeter=0;entryX=0;entryY=0.5;entryDx=0;entryDy=0;endArrow=classic;endFill=1;" edge="1" parent="1" source="XL9_cZ4qsGIXgxrW0bPy-79" target="XL9_cZ4qsGIXgxrW0bPy-95">
          <mxGeometry relative="1" as="geometry" />
        </mxCell>
        <mxCell id="XL9_cZ4qsGIXgxrW0bPy-79" value="" style="strokeWidth=2;html=1;shape=mxgraph.flowchart.multi-document;whiteSpace=wrap;shadow=1;fillColor=#dae8fc;strokeColor=#6c8ebf;" vertex="1" parent="1">
          <mxGeometry x="810" y="1465" width="118" height="70" as="geometry" />
        </mxCell>
        <mxCell id="XL9_cZ4qsGIXgxrW0bPy-80" value="" style="edgeStyle=orthogonalEdgeStyle;rounded=0;orthogonalLoop=1;jettySize=auto;html=1;exitX=1;exitY=0.5;exitDx=0;exitDy=0;entryX=0;entryY=0.5;entryDx=0;entryDy=0;endArrow=none;endFill=1;" edge="1" parent="1" source="XL9_cZ4qsGIXgxrW0bPy-66" target="XL9_cZ4qsGIXgxrW0bPy-79">
          <mxGeometry relative="1" as="geometry">
            <mxPoint x="529.9999999999998" y="1380" as="sourcePoint" />
            <mxPoint x="930" y="730" as="targetPoint" />
          </mxGeometry>
        </mxCell>
        <mxCell id="XL9_cZ4qsGIXgxrW0bPy-81" value="WBS финальная" style="text;html=1;resizable=0;autosize=1;align=center;verticalAlign=middle;points=[];fillColor=#dae8fc;strokeColor=#6c8ebf;rounded=0;shadow=1;" vertex="1" parent="1">
          <mxGeometry x="810" y="1490" width="110" height="20" as="geometry" />
        </mxCell>
        <mxCell id="XL9_cZ4qsGIXgxrW0bPy-188" style="edgeStyle=orthogonalEdgeStyle;rounded=0;orthogonalLoop=1;jettySize=auto;html=1;entryX=-0.015;entryY=0.375;entryDx=0;entryDy=0;entryPerimeter=0;endArrow=classic;endFill=1;" edge="1" parent="1" source="XL9_cZ4qsGIXgxrW0bPy-82" target="XL9_cZ4qsGIXgxrW0bPy-181">
          <mxGeometry relative="1" as="geometry">
            <Array as="points">
              <mxPoint x="20" y="985" />
            </Array>
          </mxGeometry>
        </mxCell>
        <mxCell id="XL9_cZ4qsGIXgxrW0bPy-82" value="" style="strokeWidth=2;html=1;shape=mxgraph.flowchart.multi-document;whiteSpace=wrap;shadow=1;fillColor=#dae8fc;strokeColor=#6c8ebf;" vertex="1" parent="1">
          <mxGeometry x="-22.5" y="1195" width="130" height="90" as="geometry" />
        </mxCell>
        <mxCell id="XL9_cZ4qsGIXgxrW0bPy-83" value="WBS &lt;br&gt;(не окончательная)" style="text;html=1;resizable=0;autosize=1;align=center;verticalAlign=middle;points=[];fillColor=#dae8fc;strokeColor=#6c8ebf;rounded=0;shadow=1;" vertex="1" parent="1">
          <mxGeometry x="-30" y="1225" width="130" height="30" as="geometry" />
        </mxCell>
        <mxCell id="XL9_cZ4qsGIXgxrW0bPy-88" style="edgeStyle=orthogonalEdgeStyle;rounded=0;orthogonalLoop=1;jettySize=auto;html=1;exitX=0.5;exitY=0.88;exitDx=0;exitDy=0;exitPerimeter=0;entryX=1;entryY=0.25;entryDx=0;entryDy=0;endArrow=classic;endFill=1;" edge="1" parent="1" target="XL9_cZ4qsGIXgxrW0bPy-47">
          <mxGeometry relative="1" as="geometry">
            <mxPoint x="552.5" y="1005.3999999999999" as="sourcePoint" />
            <Array as="points">
              <mxPoint x="472.5" y="1005" />
              <mxPoint x="472.5" y="1075" />
            </Array>
          </mxGeometry>
        </mxCell>
        <mxCell id="XL9_cZ4qsGIXgxrW0bPy-85" value="" style="strokeWidth=2;html=1;shape=mxgraph.flowchart.multi-document;whiteSpace=wrap;shadow=1;fillColor=#dae8fc;strokeColor=#6c8ebf;" vertex="1" parent="1">
          <mxGeometry x="492.5" y="945" width="120" height="80" as="geometry" />
        </mxCell>
        <mxCell id="XL9_cZ4qsGIXgxrW0bPy-86" value="Список &lt;br&gt;требований" style="text;html=1;resizable=0;autosize=1;align=center;verticalAlign=middle;points=[];fillColor=#dae8fc;strokeColor=#6c8ebf;rounded=0;shadow=1;" vertex="1" parent="1">
          <mxGeometry x="505" y="975" width="80" height="30" as="geometry" />
        </mxCell>
        <mxCell id="XL9_cZ4qsGIXgxrW0bPy-127" value="выполняет" style="edgeStyle=orthogonalEdgeStyle;rounded=0;orthogonalLoop=1;jettySize=auto;html=1;exitX=1;exitY=0.5;exitDx=0;exitDy=0;entryX=-0.01;entryY=0.333;entryDx=0;entryDy=0;entryPerimeter=0;endArrow=none;endFill=0;" edge="1" parent="1" source="XL9_cZ4qsGIXgxrW0bPy-95" target="XL9_cZ4qsGIXgxrW0bPy-125">
          <mxGeometry relative="1" as="geometry" />
        </mxCell>
        <mxCell id="XL9_cZ4qsGIXgxrW0bPy-128" value="выполняет" style="edgeStyle=orthogonalEdgeStyle;rounded=0;orthogonalLoop=1;jettySize=auto;html=1;exitX=1;exitY=0.25;exitDx=0;exitDy=0;entryX=0;entryY=0.333;entryDx=0;entryDy=0;entryPerimeter=0;endArrow=none;endFill=0;" edge="1" parent="1" source="XL9_cZ4qsGIXgxrW0bPy-95" target="XL9_cZ4qsGIXgxrW0bPy-123">
          <mxGeometry relative="1" as="geometry" />
        </mxCell>
        <mxCell id="XL9_cZ4qsGIXgxrW0bPy-129" value="выполняет" style="edgeStyle=orthogonalEdgeStyle;rounded=0;orthogonalLoop=1;jettySize=auto;html=1;entryX=0.01;entryY=0.4;entryDx=0;entryDy=0;entryPerimeter=0;endArrow=none;endFill=0;" edge="1" parent="1" target="XL9_cZ4qsGIXgxrW0bPy-121">
          <mxGeometry relative="1" as="geometry">
            <mxPoint x="1230" y="805" as="sourcePoint" />
          </mxGeometry>
        </mxCell>
        <mxCell id="XL9_cZ4qsGIXgxrW0bPy-200" style="edgeStyle=orthogonalEdgeStyle;rounded=0;orthogonalLoop=1;jettySize=auto;html=1;exitX=0.5;exitY=1;exitDx=0;exitDy=0;entryX=0.5;entryY=0;entryDx=0;entryDy=0;endArrow=classic;endFill=1;" edge="1" parent="1" source="XL9_cZ4qsGIXgxrW0bPy-95" target="XL9_cZ4qsGIXgxrW0bPy-96">
          <mxGeometry relative="1" as="geometry" />
        </mxCell>
        <mxCell id="XL9_cZ4qsGIXgxrW0bPy-95" value="Обсуждение&lt;br&gt;устава проекта&amp;nbsp;" style="rounded=1;whiteSpace=wrap;html=1;shadow=0;labelBackgroundColor=none;strokeWidth=1;fontFamily=Verdana;fontSize=12;align=center;fillColor=#d5e8d4;strokeColor=#82b366;" vertex="1" parent="1">
          <mxGeometry x="1110" y="745" width="120" height="80" as="geometry" />
        </mxCell>
        <mxCell id="XL9_cZ4qsGIXgxrW0bPy-100" style="edgeStyle=orthogonalEdgeStyle;rounded=0;orthogonalLoop=1;jettySize=auto;html=1;exitX=1;exitY=0.5;exitDx=0;exitDy=0;entryX=0;entryY=0.5;entryDx=0;entryDy=0;entryPerimeter=0;endArrow=classic;endFill=1;" edge="1" parent="1" source="XL9_cZ4qsGIXgxrW0bPy-96" target="XL9_cZ4qsGIXgxrW0bPy-98">
          <mxGeometry relative="1" as="geometry" />
        </mxCell>
        <mxCell id="XL9_cZ4qsGIXgxrW0bPy-201" style="edgeStyle=orthogonalEdgeStyle;rounded=0;orthogonalLoop=1;jettySize=auto;html=1;exitX=0.5;exitY=1;exitDx=0;exitDy=0;entryX=0.5;entryY=0;entryDx=0;entryDy=0;endArrow=classic;endFill=1;" edge="1" parent="1" source="XL9_cZ4qsGIXgxrW0bPy-96" target="XL9_cZ4qsGIXgxrW0bPy-197">
          <mxGeometry relative="1" as="geometry" />
        </mxCell>
        <mxCell id="XL9_cZ4qsGIXgxrW0bPy-96" value="" style="verticalLabelPosition=bottom;verticalAlign=top;html=1;shape=hexagon;perimeter=hexagonPerimeter2;arcSize=6;size=0.27;shadow=1;fillColor=#e1d5e7;strokeColor=#9673a6;" vertex="1" parent="1">
          <mxGeometry x="1115" y="877.5" width="110" height="70" as="geometry" />
        </mxCell>
        <mxCell id="XL9_cZ4qsGIXgxrW0bPy-97" value="Сформирован&lt;br&gt;устав проекта" style="text;html=1;resizable=0;autosize=1;align=center;verticalAlign=middle;points=[];fillColor=none;strokeColor=none;rounded=0;shadow=1;" vertex="1" parent="1">
          <mxGeometry x="1120" y="897.5" width="100" height="30" as="geometry" />
        </mxCell>
        <mxCell id="XL9_cZ4qsGIXgxrW0bPy-105" style="edgeStyle=orthogonalEdgeStyle;rounded=0;orthogonalLoop=1;jettySize=auto;html=1;exitX=0.5;exitY=0.88;exitDx=0;exitDy=0;exitPerimeter=0;entryX=1;entryY=0.5;entryDx=0;entryDy=0;endArrow=classic;endFill=1;" edge="1" parent="1" source="XL9_cZ4qsGIXgxrW0bPy-98" target="XL9_cZ4qsGIXgxrW0bPy-101">
          <mxGeometry relative="1" as="geometry" />
        </mxCell>
        <mxCell id="XL9_cZ4qsGIXgxrW0bPy-98" value="" style="strokeWidth=2;html=1;shape=mxgraph.flowchart.multi-document;whiteSpace=wrap;shadow=1;fillColor=#dae8fc;strokeColor=#6c8ebf;" vertex="1" parent="1">
          <mxGeometry x="1320" y="1000" width="120" height="80" as="geometry" />
        </mxCell>
        <mxCell id="XL9_cZ4qsGIXgxrW0bPy-99" value="Устав проекта" style="text;html=1;resizable=0;autosize=1;align=center;verticalAlign=middle;points=[];fillColor=#dae8fc;strokeColor=#6c8ebf;rounded=0;shadow=1;" vertex="1" parent="1">
          <mxGeometry x="1320" y="1030" width="100" height="20" as="geometry" />
        </mxCell>
        <mxCell id="XL9_cZ4qsGIXgxrW0bPy-207" style="edgeStyle=orthogonalEdgeStyle;rounded=0;orthogonalLoop=1;jettySize=auto;html=1;exitX=0;exitY=0.75;exitDx=0;exitDy=0;entryX=1;entryY=0.592;entryDx=0;entryDy=0;entryPerimeter=0;endArrow=none;endFill=0;" edge="1" parent="1" source="XL9_cZ4qsGIXgxrW0bPy-101" target="XL9_cZ4qsGIXgxrW0bPy-204">
          <mxGeometry relative="1" as="geometry" />
        </mxCell>
        <mxCell id="XL9_cZ4qsGIXgxrW0bPy-208" value="выполняет" style="edgeLabel;html=1;align=center;verticalAlign=middle;resizable=0;points=[];" vertex="1" connectable="0" parent="XL9_cZ4qsGIXgxrW0bPy-207">
          <mxGeometry x="0.1492" y="-2" relative="1" as="geometry">
            <mxPoint as="offset" />
          </mxGeometry>
        </mxCell>
        <mxCell id="XL9_cZ4qsGIXgxrW0bPy-209" value="выполняет" style="edgeStyle=orthogonalEdgeStyle;rounded=0;orthogonalLoop=1;jettySize=auto;html=1;exitX=1;exitY=0.75;exitDx=0;exitDy=0;entryX=0.029;entryY=0.66;entryDx=0;entryDy=0;entryPerimeter=0;endArrow=none;endFill=0;" edge="1" parent="1" source="XL9_cZ4qsGIXgxrW0bPy-101" target="XL9_cZ4qsGIXgxrW0bPy-202">
          <mxGeometry relative="1" as="geometry" />
        </mxCell>
        <mxCell id="XL9_cZ4qsGIXgxrW0bPy-101" value="Подписание контракта" style="rounded=1;whiteSpace=wrap;html=1;shadow=0;labelBackgroundColor=none;strokeWidth=1;fontFamily=Verdana;fontSize=12;align=center;fillColor=#d5e8d4;strokeColor=#82b366;" vertex="1" parent="1">
          <mxGeometry x="1110" y="1100" width="120" height="80" as="geometry" />
        </mxCell>
        <mxCell id="XL9_cZ4qsGIXgxrW0bPy-107" style="edgeStyle=orthogonalEdgeStyle;rounded=0;orthogonalLoop=1;jettySize=auto;html=1;exitX=0.5;exitY=1;exitDx=0;exitDy=0;entryX=0.5;entryY=0;entryDx=0;entryDy=0;endArrow=classic;endFill=1;" edge="1" parent="1" target="XL9_cZ4qsGIXgxrW0bPy-110">
          <mxGeometry relative="1" as="geometry">
            <mxPoint x="1175" y="1180" as="sourcePoint" />
          </mxGeometry>
        </mxCell>
        <mxCell id="XL9_cZ4qsGIXgxrW0bPy-108" style="edgeStyle=orthogonalEdgeStyle;rounded=0;orthogonalLoop=1;jettySize=auto;html=1;exitX=0;exitY=0.5;exitDx=0;exitDy=0;entryX=0.5;entryY=0;entryDx=0;entryDy=0;endArrow=classic;endFill=1;" edge="1" parent="1" source="XL9_cZ4qsGIXgxrW0bPy-110" target="XL9_cZ4qsGIXgxrW0bPy-111">
          <mxGeometry relative="1" as="geometry" />
        </mxCell>
        <mxCell id="XL9_cZ4qsGIXgxrW0bPy-109" style="edgeStyle=orthogonalEdgeStyle;rounded=0;orthogonalLoop=1;jettySize=auto;html=1;exitX=1;exitY=0.5;exitDx=0;exitDy=0;entryX=0.5;entryY=0;entryDx=0;entryDy=0;endArrow=classic;endFill=1;" edge="1" parent="1" source="XL9_cZ4qsGIXgxrW0bPy-110" target="XL9_cZ4qsGIXgxrW0bPy-113">
          <mxGeometry relative="1" as="geometry" />
        </mxCell>
        <mxCell id="XL9_cZ4qsGIXgxrW0bPy-110" value="&amp;nbsp;XOR" style="ellipse;whiteSpace=wrap;html=1;rounded=1;shadow=0;labelBackgroundColor=none;strokeWidth=1;fontFamily=Verdana;fontSize=12;align=center;fillColor=#f5f5f5;fontColor=#333333;strokeColor=#666666;" vertex="1" parent="1">
          <mxGeometry x="1152.5" y="1210" width="40" height="40" as="geometry" />
        </mxCell>
        <mxCell id="XL9_cZ4qsGIXgxrW0bPy-199" style="edgeStyle=orthogonalEdgeStyle;rounded=0;orthogonalLoop=1;jettySize=auto;html=1;exitX=0;exitY=0.5;exitDx=0;exitDy=0;entryX=0;entryY=0.5;entryDx=0;entryDy=0;endArrow=classic;endFill=1;" edge="1" parent="1" source="XL9_cZ4qsGIXgxrW0bPy-111" target="XL9_cZ4qsGIXgxrW0bPy-197">
          <mxGeometry relative="1" as="geometry">
            <Array as="points">
              <mxPoint x="910" y="1330" />
              <mxPoint x="910" y="1020" />
            </Array>
          </mxGeometry>
        </mxCell>
        <mxCell id="XL9_cZ4qsGIXgxrW0bPy-111" value="" style="verticalLabelPosition=bottom;verticalAlign=top;html=1;shape=hexagon;perimeter=hexagonPerimeter2;arcSize=6;size=0.27;shadow=1;fillColor=#e1d5e7;strokeColor=#9673a6;" vertex="1" parent="1">
          <mxGeometry x="1020" y="1300" width="115" height="60" as="geometry" />
        </mxCell>
        <mxCell id="XL9_cZ4qsGIXgxrW0bPy-112" value="Контракт не&lt;br&gt;согласован" style="text;html=1;resizable=0;autosize=1;align=center;verticalAlign=middle;points=[];fillColor=none;strokeColor=none;rounded=0;shadow=1;" vertex="1" parent="1">
          <mxGeometry x="1030" y="1310" width="90" height="30" as="geometry" />
        </mxCell>
        <mxCell id="XL9_cZ4qsGIXgxrW0bPy-133" style="edgeStyle=orthogonalEdgeStyle;rounded=0;orthogonalLoop=1;jettySize=auto;html=1;exitX=1;exitY=0.5;exitDx=0;exitDy=0;entryX=0;entryY=0.5;entryDx=0;entryDy=0;endArrow=classic;endFill=1;" edge="1" parent="1" source="XL9_cZ4qsGIXgxrW0bPy-113" target="XL9_cZ4qsGIXgxrW0bPy-132">
          <mxGeometry relative="1" as="geometry">
            <Array as="points">
              <mxPoint x="1530" y="1330" />
              <mxPoint x="1530" y="640" />
            </Array>
          </mxGeometry>
        </mxCell>
        <mxCell id="XL9_cZ4qsGIXgxrW0bPy-113" value="" style="verticalLabelPosition=bottom;verticalAlign=top;html=1;shape=hexagon;perimeter=hexagonPerimeter2;arcSize=6;size=0.27;shadow=1;fillColor=#e1d5e7;strokeColor=#9673a6;" vertex="1" parent="1">
          <mxGeometry x="1235" y="1300" width="115" height="60" as="geometry" />
        </mxCell>
        <mxCell id="XL9_cZ4qsGIXgxrW0bPy-114" value="Контракт&lt;br&gt;согласован" style="text;html=1;resizable=0;autosize=1;align=center;verticalAlign=middle;points=[];fillColor=none;strokeColor=none;rounded=0;shadow=1;" vertex="1" parent="1">
          <mxGeometry x="1252.5" y="1315" width="80" height="30" as="geometry" />
        </mxCell>
        <mxCell id="XL9_cZ4qsGIXgxrW0bPy-116" value="" style="strokeWidth=2;html=1;shape=mxgraph.flowchart.start_1;whiteSpace=wrap;fillColor=#fff2cc;strokeColor=#d6b656;" vertex="1" parent="1">
          <mxGeometry x="495" y="515" width="100" height="60" as="geometry" />
        </mxCell>
        <mxCell id="XL9_cZ4qsGIXgxrW0bPy-117" value="Тех. эксперт" style="text;html=1;resizable=0;autosize=1;align=center;verticalAlign=middle;points=[];fillColor=none;strokeColor=none;rounded=0;shadow=1;" vertex="1" parent="1">
          <mxGeometry x="500" y="535" width="90" height="20" as="geometry" />
        </mxCell>
        <mxCell id="XL9_cZ4qsGIXgxrW0bPy-121" value="" style="strokeWidth=2;html=1;shape=mxgraph.flowchart.start_1;whiteSpace=wrap;fillColor=#fff2cc;strokeColor=#d6b656;" vertex="1" parent="1">
          <mxGeometry x="1340" y="835" width="100" height="60" as="geometry" />
        </mxCell>
        <mxCell id="XL9_cZ4qsGIXgxrW0bPy-122" value="Клиент" style="text;html=1;resizable=0;autosize=1;align=center;verticalAlign=middle;points=[];fillColor=none;strokeColor=none;rounded=0;shadow=1;" vertex="1" parent="1">
          <mxGeometry x="1360" y="855" width="60" height="20" as="geometry" />
        </mxCell>
        <mxCell id="XL9_cZ4qsGIXgxrW0bPy-123" value="" style="strokeWidth=2;html=1;shape=mxgraph.flowchart.start_1;whiteSpace=wrap;fillColor=#fff2cc;strokeColor=#d6b656;" vertex="1" parent="1">
          <mxGeometry x="1340" y="695" width="100" height="60" as="geometry" />
        </mxCell>
        <mxCell id="XL9_cZ4qsGIXgxrW0bPy-124" value="PM" style="text;html=1;resizable=0;autosize=1;align=center;verticalAlign=middle;points=[];fillColor=none;strokeColor=none;rounded=0;shadow=1;" vertex="1" parent="1">
          <mxGeometry x="1375" y="715" width="30" height="20" as="geometry" />
        </mxCell>
        <mxCell id="XL9_cZ4qsGIXgxrW0bPy-125" value="" style="strokeWidth=2;html=1;shape=mxgraph.flowchart.start_1;whiteSpace=wrap;fillColor=#fff2cc;strokeColor=#d6b656;" vertex="1" parent="1">
          <mxGeometry x="1340" y="765" width="100" height="60" as="geometry" />
        </mxCell>
        <mxCell id="XL9_cZ4qsGIXgxrW0bPy-126" value="Team Lead" style="text;html=1;resizable=0;autosize=1;align=center;verticalAlign=middle;points=[];fillColor=none;strokeColor=none;rounded=0;shadow=1;" vertex="1" parent="1">
          <mxGeometry x="1355" y="785" width="70" height="20" as="geometry" />
        </mxCell>
        <mxCell id="XL9_cZ4qsGIXgxrW0bPy-130" value="" style="verticalLabelPosition=bottom;verticalAlign=top;html=1;shape=hexagon;perimeter=hexagonPerimeter2;arcSize=6;size=0.27;shadow=1;fillColor=#e1d5e7;strokeColor=#9673a6;" vertex="1" parent="1">
          <mxGeometry x="1600" y="770" width="240" height="65" as="geometry" />
        </mxCell>
        <mxCell id="XL9_cZ4qsGIXgxrW0bPy-131" value="Команда собрана и&amp;nbsp;&lt;br&gt;готова приступить к разработке" style="text;html=1;resizable=0;autosize=1;align=center;verticalAlign=middle;points=[];fillColor=none;strokeColor=none;rounded=0;shadow=1;" vertex="1" parent="1">
          <mxGeometry x="1620" y="785" width="200" height="30" as="geometry" />
        </mxCell>
        <mxCell id="XL9_cZ4qsGIXgxrW0bPy-134" style="edgeStyle=orthogonalEdgeStyle;rounded=0;orthogonalLoop=1;jettySize=auto;html=1;exitX=0.5;exitY=1;exitDx=0;exitDy=0;entryX=0.5;entryY=0;entryDx=0;entryDy=0;endArrow=classic;endFill=1;" edge="1" parent="1" source="XL9_cZ4qsGIXgxrW0bPy-132" target="XL9_cZ4qsGIXgxrW0bPy-130">
          <mxGeometry relative="1" as="geometry" />
        </mxCell>
        <mxCell id="XL9_cZ4qsGIXgxrW0bPy-140" value="выполняет" style="edgeStyle=orthogonalEdgeStyle;rounded=0;orthogonalLoop=1;jettySize=auto;html=1;exitX=1;exitY=0.25;exitDx=0;exitDy=0;entryX=0;entryY=0.5;entryDx=0;entryDy=0;entryPerimeter=0;endArrow=classic;endFill=1;" edge="1" parent="1" source="XL9_cZ4qsGIXgxrW0bPy-132" target="XL9_cZ4qsGIXgxrW0bPy-136">
          <mxGeometry relative="1" as="geometry" />
        </mxCell>
        <mxCell id="XL9_cZ4qsGIXgxrW0bPy-141" value="выполняет" style="edgeStyle=orthogonalEdgeStyle;rounded=0;orthogonalLoop=1;jettySize=auto;html=1;exitX=1;exitY=0.75;exitDx=0;exitDy=0;entryX=0;entryY=0.5;entryDx=0;entryDy=0;entryPerimeter=0;endArrow=classic;endFill=1;" edge="1" parent="1" source="XL9_cZ4qsGIXgxrW0bPy-132" target="XL9_cZ4qsGIXgxrW0bPy-138">
          <mxGeometry relative="1" as="geometry" />
        </mxCell>
        <mxCell id="XL9_cZ4qsGIXgxrW0bPy-132" value="Сбор команды&lt;br&gt;на проект" style="rounded=1;whiteSpace=wrap;html=1;shadow=0;labelBackgroundColor=none;strokeWidth=1;fontFamily=Verdana;fontSize=12;align=center;fillColor=#d5e8d4;strokeColor=#82b366;" vertex="1" parent="1">
          <mxGeometry x="1590" y="600" width="120" height="80" as="geometry" />
        </mxCell>
        <mxCell id="XL9_cZ4qsGIXgxrW0bPy-135" value="Контракт&lt;br&gt;проекта" style="strokeWidth=2;html=1;shape=mxgraph.flowchart.multi-document;whiteSpace=wrap;shadow=1;fillColor=#dae8fc;strokeColor=#6c8ebf;" vertex="1" parent="1">
          <mxGeometry x="1490" y="1150" width="88" height="60" as="geometry" />
        </mxCell>
        <mxCell id="XL9_cZ4qsGIXgxrW0bPy-136" value="" style="strokeWidth=2;html=1;shape=mxgraph.flowchart.start_1;whiteSpace=wrap;fillColor=#fff2cc;strokeColor=#d6b656;" vertex="1" parent="1">
          <mxGeometry x="1830" y="560" width="100" height="60" as="geometry" />
        </mxCell>
        <mxCell id="XL9_cZ4qsGIXgxrW0bPy-137" value="PM" style="text;html=1;resizable=0;autosize=1;align=center;verticalAlign=middle;points=[];fillColor=none;strokeColor=none;rounded=0;shadow=1;" vertex="1" parent="1">
          <mxGeometry x="1865" y="580" width="30" height="20" as="geometry" />
        </mxCell>
        <mxCell id="XL9_cZ4qsGIXgxrW0bPy-138" value="" style="strokeWidth=2;html=1;shape=mxgraph.flowchart.start_1;whiteSpace=wrap;fillColor=#fff2cc;strokeColor=#d6b656;" vertex="1" parent="1">
          <mxGeometry x="1830" y="660" width="100" height="60" as="geometry" />
        </mxCell>
        <mxCell id="XL9_cZ4qsGIXgxrW0bPy-139" value="Team Lead" style="text;html=1;resizable=0;autosize=1;align=center;verticalAlign=middle;points=[];fillColor=none;strokeColor=none;rounded=0;shadow=1;" vertex="1" parent="1">
          <mxGeometry x="1845" y="680" width="70" height="20" as="geometry" />
        </mxCell>
        <mxCell id="XL9_cZ4qsGIXgxrW0bPy-168" style="edgeStyle=orthogonalEdgeStyle;rounded=0;orthogonalLoop=1;jettySize=auto;html=1;exitX=0.5;exitY=1;exitDx=0;exitDy=0;entryX=0.45;entryY=0.013;entryDx=0;entryDy=0;entryPerimeter=0;endArrow=classic;endFill=1;" edge="1" parent="1" source="XL9_cZ4qsGIXgxrW0bPy-144" target="XL9_cZ4qsGIXgxrW0bPy-21">
          <mxGeometry relative="1" as="geometry" />
        </mxCell>
        <mxCell id="XL9_cZ4qsGIXgxrW0bPy-144" value="XOR" style="ellipse;whiteSpace=wrap;html=1;rounded=1;shadow=0;labelBackgroundColor=none;strokeWidth=1;fontFamily=Verdana;fontSize=12;align=center;fillColor=#f5f5f5;fontColor=#333333;strokeColor=#666666;" vertex="1" parent="1">
          <mxGeometry x="330" y="440" width="40" height="40" as="geometry" />
        </mxCell>
        <mxCell id="XL9_cZ4qsGIXgxrW0bPy-165" value="выполняет" style="edgeStyle=orthogonalEdgeStyle;rounded=0;orthogonalLoop=1;jettySize=auto;html=1;exitX=1;exitY=0.5;exitDx=0;exitDy=0;entryX=0;entryY=0.5;entryDx=0;entryDy=0;entryPerimeter=0;endArrow=none;endFill=0;" edge="1" parent="1" source="XL9_cZ4qsGIXgxrW0bPy-145" target="XL9_cZ4qsGIXgxrW0bPy-163">
          <mxGeometry relative="1" as="geometry" />
        </mxCell>
        <mxCell id="XL9_cZ4qsGIXgxrW0bPy-166" style="edgeStyle=orthogonalEdgeStyle;rounded=0;orthogonalLoop=1;jettySize=auto;html=1;exitX=0.5;exitY=1;exitDx=0;exitDy=0;entryX=0.5;entryY=0;entryDx=0;entryDy=0;endArrow=classic;endFill=1;" edge="1" parent="1" source="XL9_cZ4qsGIXgxrW0bPy-145" target="XL9_cZ4qsGIXgxrW0bPy-160">
          <mxGeometry relative="1" as="geometry" />
        </mxCell>
        <mxCell id="XL9_cZ4qsGIXgxrW0bPy-145" value="Определение&lt;br&gt;ценности заявки" style="rounded=1;whiteSpace=wrap;html=1;shadow=0;labelBackgroundColor=none;strokeWidth=1;fontFamily=Verdana;fontSize=12;align=center;fillColor=#d5e8d4;strokeColor=#82b366;" vertex="1" parent="1">
          <mxGeometry x="290" y="240" width="120" height="80" as="geometry" />
        </mxCell>
        <mxCell id="XL9_cZ4qsGIXgxrW0bPy-178" style="edgeStyle=orthogonalEdgeStyle;rounded=0;orthogonalLoop=1;jettySize=auto;html=1;exitX=0.5;exitY=1;exitDx=0;exitDy=0;endArrow=classic;endFill=1;" edge="1" parent="1" source="XL9_cZ4qsGIXgxrW0bPy-146">
          <mxGeometry relative="1" as="geometry">
            <mxPoint x="350" y="240" as="targetPoint" />
          </mxGeometry>
        </mxCell>
        <mxCell id="XL9_cZ4qsGIXgxrW0bPy-146" value="" style="verticalLabelPosition=bottom;verticalAlign=top;html=1;shape=hexagon;perimeter=hexagonPerimeter2;arcSize=6;size=0.27;shadow=1;fillColor=#e1d5e7;strokeColor=#9673a6;" vertex="1" parent="1">
          <mxGeometry x="250" y="140" width="200" height="60" as="geometry" />
        </mxCell>
        <mxCell id="XL9_cZ4qsGIXgxrW0bPy-151" value="Заявка принята&amp;nbsp;&lt;br&gt;на рассмотрение" style="text;html=1;resizable=0;autosize=1;align=center;verticalAlign=middle;points=[];fillColor=none;strokeColor=none;rounded=0;shadow=1;" vertex="1" parent="1">
          <mxGeometry x="292.5" y="155" width="110" height="30" as="geometry" />
        </mxCell>
        <mxCell id="XL9_cZ4qsGIXgxrW0bPy-167" style="edgeStyle=orthogonalEdgeStyle;rounded=0;orthogonalLoop=1;jettySize=auto;html=1;exitX=0.5;exitY=1;exitDx=0;exitDy=0;entryX=0.5;entryY=0;entryDx=0;entryDy=0;endArrow=classic;endFill=1;" edge="1" parent="1" source="XL9_cZ4qsGIXgxrW0bPy-160" target="XL9_cZ4qsGIXgxrW0bPy-144">
          <mxGeometry relative="1" as="geometry" />
        </mxCell>
        <mxCell id="XL9_cZ4qsGIXgxrW0bPy-160" value="" style="verticalLabelPosition=bottom;verticalAlign=top;html=1;shape=hexagon;perimeter=hexagonPerimeter2;arcSize=6;size=0.27;shadow=1;fillColor=#e1d5e7;strokeColor=#9673a6;" vertex="1" parent="1">
          <mxGeometry x="297.5" y="350" width="110" height="70" as="geometry" />
        </mxCell>
        <mxCell id="XL9_cZ4qsGIXgxrW0bPy-161" value="Заявка оценена" style="text;html=1;resizable=0;autosize=1;align=center;verticalAlign=middle;points=[];fillColor=none;strokeColor=none;rounded=0;shadow=1;" vertex="1" parent="1">
          <mxGeometry x="297.5" y="375" width="110" height="20" as="geometry" />
        </mxCell>
        <mxCell id="XL9_cZ4qsGIXgxrW0bPy-163" value="" style="strokeWidth=2;html=1;shape=mxgraph.flowchart.start_1;whiteSpace=wrap;fillColor=#fff2cc;strokeColor=#d6b656;" vertex="1" parent="1">
          <mxGeometry x="492.5" y="250" width="100" height="60" as="geometry" />
        </mxCell>
        <mxCell id="XL9_cZ4qsGIXgxrW0bPy-164" value="Пресейлер" style="text;html=1;resizable=0;autosize=1;align=center;verticalAlign=middle;points=[];fillColor=none;strokeColor=none;rounded=0;shadow=1;" vertex="1" parent="1">
          <mxGeometry x="502.5" y="270" width="80" height="20" as="geometry" />
        </mxCell>
        <mxCell id="XL9_cZ4qsGIXgxrW0bPy-171" style="edgeStyle=orthogonalEdgeStyle;rounded=0;orthogonalLoop=1;jettySize=auto;html=1;exitX=0;exitY=0.5;exitDx=0;exitDy=0;entryX=0.5;entryY=0;entryDx=0;entryDy=0;endArrow=classic;endFill=1;" edge="1" parent="1" source="XL9_cZ4qsGIXgxrW0bPy-169" target="XL9_cZ4qsGIXgxrW0bPy-18">
          <mxGeometry relative="1" as="geometry" />
        </mxCell>
        <mxCell id="XL9_cZ4qsGIXgxrW0bPy-172" style="edgeStyle=orthogonalEdgeStyle;rounded=0;orthogonalLoop=1;jettySize=auto;html=1;exitX=1;exitY=0.5;exitDx=0;exitDy=0;entryX=0.5;entryY=0;entryDx=0;entryDy=0;endArrow=classic;endFill=1;" edge="1" parent="1" source="XL9_cZ4qsGIXgxrW0bPy-169" target="XL9_cZ4qsGIXgxrW0bPy-32">
          <mxGeometry relative="1" as="geometry" />
        </mxCell>
        <mxCell id="XL9_cZ4qsGIXgxrW0bPy-169" value="XOR" style="ellipse;whiteSpace=wrap;html=1;rounded=1;shadow=0;labelBackgroundColor=none;strokeWidth=1;fontFamily=Verdana;fontSize=12;align=center;fillColor=#f5f5f5;fontColor=#333333;strokeColor=#666666;" vertex="1" parent="1">
          <mxGeometry x="330" y="605" width="40" height="40" as="geometry" />
        </mxCell>
        <mxCell id="XL9_cZ4qsGIXgxrW0bPy-183" style="edgeStyle=orthogonalEdgeStyle;rounded=0;orthogonalLoop=1;jettySize=auto;html=1;exitX=0;exitY=0.5;exitDx=0;exitDy=0;exitPerimeter=0;entryX=0.5;entryY=0;entryDx=0;entryDy=0;endArrow=classic;endFill=1;" edge="1" parent="1" source="XL9_cZ4qsGIXgxrW0bPy-176" target="XL9_cZ4qsGIXgxrW0bPy-38">
          <mxGeometry relative="1" as="geometry" />
        </mxCell>
        <mxCell id="XL9_cZ4qsGIXgxrW0bPy-176" value="" style="strokeWidth=2;html=1;shape=mxgraph.flowchart.multi-document;whiteSpace=wrap;shadow=1;fillColor=#dae8fc;strokeColor=#6c8ebf;" vertex="1" parent="1">
          <mxGeometry x="485" y="670" width="120" height="80" as="geometry" />
        </mxCell>
        <mxCell id="XL9_cZ4qsGIXgxrW0bPy-177" value="Отчет по&lt;br&gt;ресурсам" style="text;html=1;resizable=0;autosize=1;align=center;verticalAlign=middle;points=[];fillColor=#dae8fc;strokeColor=#6c8ebf;rounded=0;shadow=1;" vertex="1" parent="1">
          <mxGeometry x="502.5" y="695" width="70" height="30" as="geometry" />
        </mxCell>
        <mxCell id="XL9_cZ4qsGIXgxrW0bPy-181" value="&amp;nbsp;XOR" style="ellipse;whiteSpace=wrap;html=1;rounded=1;shadow=0;labelBackgroundColor=none;strokeWidth=1;fontFamily=Verdana;fontSize=12;align=center;fillColor=#f5f5f5;fontColor=#333333;strokeColor=#666666;" vertex="1" parent="1">
          <mxGeometry x="335" y="970" width="40" height="40" as="geometry" />
        </mxCell>
        <mxCell id="XL9_cZ4qsGIXgxrW0bPy-198" style="edgeStyle=orthogonalEdgeStyle;rounded=0;orthogonalLoop=1;jettySize=auto;html=1;exitX=0.5;exitY=1;exitDx=0;exitDy=0;entryX=0.5;entryY=0;entryDx=0;entryDy=0;endArrow=classic;endFill=1;" edge="1" parent="1" source="XL9_cZ4qsGIXgxrW0bPy-197" target="XL9_cZ4qsGIXgxrW0bPy-101">
          <mxGeometry relative="1" as="geometry" />
        </mxCell>
        <mxCell id="XL9_cZ4qsGIXgxrW0bPy-197" value="&amp;nbsp;XOR" style="ellipse;whiteSpace=wrap;html=1;rounded=1;shadow=0;labelBackgroundColor=none;strokeWidth=1;fontFamily=Verdana;fontSize=12;align=center;fillColor=#f5f5f5;fontColor=#333333;strokeColor=#666666;" vertex="1" parent="1">
          <mxGeometry x="1150" y="1000" width="40" height="40" as="geometry" />
        </mxCell>
        <mxCell id="XL9_cZ4qsGIXgxrW0bPy-202" value="" style="strokeWidth=2;html=1;shape=mxgraph.flowchart.start_1;whiteSpace=wrap;fillColor=#fff2cc;strokeColor=#d6b656;" vertex="1" parent="1">
          <mxGeometry x="1320" y="1120" width="100" height="60" as="geometry" />
        </mxCell>
        <mxCell id="XL9_cZ4qsGIXgxrW0bPy-203" value="Клиент" style="text;html=1;resizable=0;autosize=1;align=center;verticalAlign=middle;points=[];fillColor=none;strokeColor=none;rounded=0;shadow=1;" vertex="1" parent="1">
          <mxGeometry x="1340" y="1140" width="60" height="20" as="geometry" />
        </mxCell>
        <mxCell id="XL9_cZ4qsGIXgxrW0bPy-204" value="" style="strokeWidth=2;html=1;shape=mxgraph.flowchart.start_1;whiteSpace=wrap;fillColor=#fff2cc;strokeColor=#d6b656;" vertex="1" parent="1">
          <mxGeometry x="930" y="1125" width="100" height="60" as="geometry" />
        </mxCell>
        <mxCell id="XL9_cZ4qsGIXgxrW0bPy-205" value="CEO" style="text;html=1;resizable=0;autosize=1;align=center;verticalAlign=middle;points=[];fillColor=none;strokeColor=none;rounded=0;shadow=1;" vertex="1" parent="1">
          <mxGeometry x="960" y="1145" width="40" height="20" as="geometry" />
        </mxCell>
        <mxCell id="XL9_cZ4qsGIXgxrW0bPy-211" value="" style="strokeWidth=2;html=1;shape=mxgraph.flowchart.database;whiteSpace=wrap;shadow=1;fillColor=#1ba1e2;fontColor=#ffffff;strokeColor=#006EAF;" vertex="1" parent="1">
          <mxGeometry x="32.5" y="70" width="115" height="85" as="geometry" />
        </mxCell>
        <mxCell id="XL9_cZ4qsGIXgxrW0bPy-212" value="Заявка с Trello" style="text;html=1;resizable=0;autosize=1;align=center;verticalAlign=middle;points=[];fillColor=#1ba1e2;strokeColor=#006EAF;rounded=0;shadow=1;fontColor=#ffffff;" vertex="1" parent="1">
          <mxGeometry x="37.5" y="110" width="100" height="20" as="geometry" />
        </mxCell>
      </root>
    </mxGraphModel>
  </diagram>
</mxfile>
